#!OML:ASF H:\BabyWalks\Project 1\Capture day 1\Session 1\baby.ASF
:FULLY-SPECIFIED
:DEGREES
1621
root 21.2027 17.659 -2.33649 -406.526 82.0783 -408.755
lowerback 16.5832 -0.937163 6.20334
upperback 4.38842 0.364918 4.36682
thorax -4.60249 0.273736 1.03775
lowerneck 2.83506 2.77574 9.72597
upperneck -17.7294 2.41824 -17.5142
head -5.29516 1.98653 -7.4493
rclavicle -2.38542e-015 3.33958e-014
rhumerus -43.8244 4.62169 -77.5536
rradius 50.9859
rwrist 2.3131
rhand -8.58161 -12.3904
rfingers 7.12502
rthumb 17.3491 -41.6361
lclavicle -2.38542e-015 3.33958e-014
lhumerus -53.4807 -9.74532 87.913
lradius 49.8484
lwrist 2.34881
lhand 8.00682 11.5962
lfingers 7.12502
lthumb 33.2335 38.5468
rfemur -2.70059 13.8704 26.9605
rtibia 19.7933
rfoot -16.7864 10.3945
rtoes 8.70011
lfemur -26.7347 -7.7721 -4.62776
ltibia 27.0373
lfoot -13.0618 3.64228
ltoes -12.0993
1622
root 21.296 17.638 -2.35722 -407.523 81.5399 -409.704
lowerback 16.4463 -0.953974 6.33403
upperback 4.4512 0.349591 4.38397
thorax -4.46137 0.269961 0.984109
lowerneck 2.95571 2.93258 9.75858
upperneck -17.655 2.67537 -17.2781
head -5.26211 2.09082 -7.38061
rclavicle 1.2921e-014 -1.43125e-014
rhumerus -43.7824 4.48881 -77.4709
rradius 50.6783
rwrist 2.52567
rhand -8.47669 -12.4031
rfingers 7.12502
rthumb 17.4501 -41.6399
lclavicle 1.2921e-014 -1.43125e-014
lhumerus -53.3867 -9.93483 87.9201
lradius 49.9268
lwrist 2.36254
lhand 8.05733 11.6079
lfingers 7.12502
lthumb 33.2815 38.5483
rfemur -2.17249 13.1343 27.3805
rtibia 19.4129
rfoot -16.7755 11.4165
rtoes 9.2832
lfemur -26.6666 -7.88355 -4.23375
ltibia 26.9571
lfoot -11.7991 3.63828
ltoes -11.9413
1623
root 21.3899 17.6157 -2.37878 -408.713 80.9779 -410.826
lowerback 16.3134 -0.982647 6.50664
upperback 4.51292 0.326849 4.41106
thorax -4.32362 0.26283 0.919132
lowerneck 3.07047 3.09755 9.80541
upperneck -17.5596 2.94457 -17.0533
head -5.21985 2.2002 -7.31762
rclavicle -1.39149e-015 -6.04305e-014
rhumerus -43.7596 4.36084 -77.3859
rradius 50.3979
rwrist 2.73061
rhand -8.37904 -12.4176
rfingers 7.12502
rthumb 17.5441 -41.646
lclavicle -1.39149e-015 -6.04305e-014
lhumerus -53.2805 -10.1219 87.9154
lradius 50.016
lwrist 2.35976
lhand 8.09136 11.5891
lfingers 7.12502
lthumb 33.3139 38.5226
rfemur -1.59301 12.2716 27.8199
rtibia 18.9617
rfoot -16.6984 12.5788
rtoes 9.99129
lfemur -26.5803 -7.96468 -3.83031
ltibia 27.0402
lfoot -10.4407 3.50496
ltoes -11.6014
1624
root 21.4839 17.5931 -2.40098 -410.055 80.4015 -412.084
lowerback 16.189 -1.02119 6.71175
upperback 4.57286 0.298056 4.44852
thorax -4.19236 0.253048 0.8483
lowerneck 3.19805 3.26833 9.87311
upperneck -17.4794 3.22018 -16.8525
head -5.18293 2.31431 -7.26797
rclavicle 2.06736e-014 8.66701e-014
rhumerus -43.7489 4.22998 -77.2942
rradius 50.1406
rwrist 2.92984
rhand -8.28739 -12.4331
rfingers 7.12502
rthumb 17.6323 -41.6536
lclavicle 2.06736e-014 8.66701e-014
lhumerus -53.1464 -10.2989 87.895
lradius 50.1028
lwrist 2.3312
lhand 8.10755 11.5299
lfingers 7.12502
lthumb 33.3293 38.46
rfemur -0.956433 11.2958 28.2692
rtibia 18.4158
rfoot -16.5308 13.859
rtoes 10.8076
lfemur -26.4933 -7.99455 -3.41739
ltibia 27.2956
lfoot -9.10076 3.18462
ltoes -11.0956
1625
root 21.5766 17.5713 -2.42356 -411.502 79.8127 -413.435
lowerback 16.0852 -1.06808 6.94041
upperback 4.62896 0.265077 4.49601
thorax -4.07649 0.241349 0.776029
lowerneck 3.36571 3.44476 9.95872
upperneck -17.452 3.50067 -16.6794
head -5.16754 2.43475 -7.23494
rclavicle -3.18055e-014 -4.05521e-014
rhumerus -43.7438 4.08099 -77.1964
rradius 49.8981
rwrist 3.13874
rhand -8.20621 -12.4471
rfingers 7.12502
rthumb 17.7104 -41.6606
lclavicle -3.18055e-014 -4.05521e-014
lhumerus -52.9727 -10.4431 87.8468
lradius 50.1764
lwrist 2.25569
lhand 8.0968 11.4253
lfingers 7.12502
lthumb 33.3191 38.3576
rfemur -0.265914 10.2465 28.7271
rtibia 17.7709
rfoot -16.256 15.212
rtoes 11.7136
lfemur -26.4244 -7.95755 -2.9885
ltibia 27.726
lfoot -7.95712 2.69807
ltoes -10.4947
